<?xml version="1.0" standalone="no"?>
<!DOCTYPE svg PUBLIC "-//W3C//DTD SVG 20010904//EN"
 "http://www.w3.org/TR/2001/REC-SVG-20010904/DTD/svg10.dtd">
<svg version="1.0" xmlns="http://www.w3.org/2000/svg"
 width="397.000000pt" height="397.000000pt" viewBox="0 0 397.000000 397.000000"
 preserveAspectRatio="xMidYMid meet">
<metadata>
Created by potrace 1.14, written by Peter Selinger 2001-2017
</metadata>
<g transform="translate(0.000000,397.000000) scale(0.100000,-0.100000)"
fill="#000000" stroke="none">
<path d="M480 3920 l0 -40 640 0 640 0 0 40 0 40 -640 0 -640 0 0 -40z"/>
<path d="M2200 3900 l0 -60 640 0 640 0 0 60 0 60 -640 0 -640 0 0 -60z"/>
<path d="M480 3680 l0 -100 640 0 640 0 0 100 0 100 -640 0 -640 0 0 -100z"/>
<path d="M2200 3455 l0 -195 640 0 640 0 0 195 0 195 -640 0 -640 0 0 -195z"/>
<path d="M480 3135 l0 -65 640 0 640 0 0 65 0 65 -640 0 -640 0 0 -65z"/>
<path d="M480 2735 l0 -105 640 0 640 0 0 105 0 105 -640 0 -640 0 0 -105z"/>
<path d="M2200 2585 l0 -45 640 0 640 0 0 45 0 45 -640 0 -640 0 0 -45z"/>
<path d="M480 2410 l0 -30 640 0 640 0 0 30 0 30 -640 0 -640 0 0 -30z"/>
<path d="M2200 2300 l0 -50 640 0 640 0 0 50 0 50 -640 0 -640 0 0 -50z"/>
<path d="M480 2230 l0 -30 640 0 640 0 0 30 0 30 -640 0 -640 0 0 -30z"/>
<path d="M2200 1915 l0 -145 640 0 640 0 0 145 0 145 -640 0 -640 0 0 -145z"/>
<path d="M480 1860 l0 -150 640 0 640 0 0 150 0 150 -640 0 -640 0 0 -150z"/>
<path d="M2200 1425 l0 -65 640 0 640 0 0 65 0 65 -640 0 -640 0 0 -65z"/>
<path d="M480 1105 l0 -155 640 0 640 0 0 155 0 155 -640 0 -640 0 0 -155z"/>
<path d="M2200 1235 l0 -25 640 0 640 0 0 25 0 25 -640 0 -640 0 0 -25z"/>
<path d="M2200 795 l0 -95 640 0 640 0 0 95 0 95 -640 0 -640 0 0 -95z"/>
<path d="M480 730 l0 -30 640 0 640 0 0 30 0 30 -640 0 -640 0 0 -30z"/>
<path d="M480 505 l0 -65 640 0 640 0 0 65 0 65 -640 0 -640 0 0 -65z"/>
<path d="M2200 525 l0 -45 640 0 640 0 0 45 0 45 -640 0 -640 0 0 -45z"/>
<path d="M480 110 l0 -100 640 0 640 0 0 100 0 100 -640 0 -640 0 0 -100z"/>
<path d="M2200 110 l0 -100 640 0 640 0 0 100 0 100 -640 0 -640 0 0 -100z"/>
</g>
</svg>
